<?xml version="1.0" encoding="UTF-8"?><svg id="Calque_1" xmlns="http://www.w3.org/2000/svg" viewBox="0 0 512 512"><path d="M394.28,207.8c.81,2.41,1.39,4.78,1.8,7.07,1.61,9.03-.93,17.78-5.99,21.74-22.6,17.7-49.85,29.35-75.34,38.6-.59.22-1.09.28-1.4.34-2.22.47-4.95,1.04-7.25,0-1.46-.66-2.25-1.74-2.66-2.3-1.56-2.1-1.59-4.31-1.56-5.13.1-2.67-.01-4.69,0-4.82.45-3.52.91-10.66,1.41-21.28.6-3.87,2.16-9.63,6.94-13.96,4.01-3.62,8.33-4.6,14.59-5.87,10.76-2.19,37.21-8.22,47.42-16.56,1.63-1.33,2.97-2.65,4.19-3.96,3.72-3.99,6.39-7.92,7.93-10.36,3.22,3.22,7.25,8.48,9.92,16.47Z"/><path d="M428.67,185.28c-2.33,11.99-8.91,22.32-15.88,30.38.27-5.5-.05-12.11-1.86-19.08-5.04-19.36-19.74-34.7-37.78-37.78-32.21-9.74-70.59,3.79-99.08,18.29-3.87,1.95-9.52-2.77-11.84-8.16-3.32-7.71-1.63-6.28,2.61-8.49,38.31-20.03,82.01-39.61,123.91-29.7,8.26,1.95,15.96,5.26,23.48,10.54,11.32,7.96,20.21,24.74,16.44,44Z"/><path d="M117.72,304.2c-.81-2.41-1.39-4.78-1.8-7.07-1.61-9.03.93-17.78,5.99-21.74,22.6-17.7,49.85-29.35,75.34-38.6.59-.22,1.09-.28,1.4-.34,2.22-.47,4.95-1.04,7.25,0,1.46.66,2.25,1.74,2.66,2.3,1.56,2.1,1.59,4.31,1.56,5.13-.1,2.67.01,4.69,0,4.82-.45,3.52-.91,10.66-1.41,21.28-.6,3.87-2.16,9.63-6.94,13.96-4.01,3.62-8.33,4.6-14.59,5.87-10.76,2.19-37.21,8.22-47.42,16.56-1.63,1.33-2.97,2.65-4.19,3.96-3.72,3.99-6.39,7.92-7.93,10.36-3.22-3.22-7.25-8.48-9.92-16.47Z"/><path d="M83.33,326.72c2.33-11.99,8.91-22.32,15.88-30.38-.27,5.5.05,12.11,1.86,19.08,5.04,19.36,19.74,34.7,37.78,37.78,32.21,9.74,70.59-3.79,99.08-18.29,3.87-1.95,9.52,2.77,11.84,8.16,3.32,7.71,1.63,6.28-2.61,8.49-38.31,20.03-82.01,39.61-123.91,29.7-8.26-1.95-15.96-5.26-23.48-10.54-11.32-7.96-20.21-24.74-16.44-44Z"/><ellipse cx="255.16" cy="258.86" rx="28.95" ry="28.76"/></svg>